<svg height="512" viewBox="0 0 512 512" width="512" xmlns="http://www.w3.org/2000/svg"><g><path d="m152 448-24 16 16 8v16h-56v-16l24-40z" fill="#8e4b19"/><path d="m152 448 16-24 56-40h-112v48z" fill="#00587e"/><path d="m264 320h-64l32 32z" fill="#d20e0f"/><g><path d="m264 112h32v48h-32z" fill="#dff1fc"/><path d="m264 136h8a24 24 0 0 0 24-24v48h-32z" fill="#aedef8"/><circle cx="168" cy="232" fill="#fac8b2" r="104"/><path d="m208.07 328a104.012 104.012 0 1 1 -40.14-200 104.018 104.018 0 0 0 40.07 200z" fill="#f4b7a2"/><path d="m264.03 192h-32.03l-48 48-16-16a22.627 22.627 0 0 0 -32 32l16 16-44.56 44.56a104.012 104.012 0 1 1 156.59-124.56z" fill="#683b11"/><path d="m104 224a103.6 103.6 0 0 0 26.57 69.43l-23.13 23.13a104.007 104.007 0 0 1 60.49-188.56 104.021 104.021 0 0 0 -63.93 96z" fill="#381b05"/><circle cx="240" cy="256" fill="#2c3f51" r="8"/><path d="m213.656 322.343-21.656-21.657v-76.686a8 8 0 0 0 -16 0v60.686l-66.342-66.343a8 8 0 0 0 -11.314 11.314l104 104a8 8 0 1 0 11.314-11.314z" fill="#c1641f"/><path d="m256 296a7.974 7.974 0 0 1 -5.657-2.343 3.312 3.312 0 0 0 -4.686 0 8 8 0 0 1 -11.314 0 3.312 3.312 0 0 0 -4.686 0 8 8 0 0 1 -11.314-11.314 19.351 19.351 0 0 1 21.657-3.933 19.351 19.351 0 0 1 21.657 3.933 8 8 0 0 1 -5.657 13.657z" fill="#683b11"/><circle cx="200" cy="288" fill="#f05a29" r="16"/><path d="m40 192a16 16 0 1 0 0 32h256a16 16 0 1 0 0-32h-8a119.4 119.4 0 0 0 -24-72v-40s-32-24-96-24c-72 0-128 56-128 136z" fill="#ff0"/><g><path d="m24 208a15.979 15.979 0 0 0 16 16h256a16 16 0 0 0 16-16z" fill="#fcc200"/><g><path d="m168 192h120a119.4 119.4 0 0 0 -24-72c-32 48-96 72-96 72z" fill="#ffce00"/><path d="m307.32 196.68a15.987 15.987 0 0 0 -11.32-4.68h-128s64-24 96-72v-40s-12.713-9.523-38.115-16.572a174.331 174.331 0 0 1 -68.947 83.839 174.334 174.334 0 0 1 -115.7 24.6 163.8 163.8 0 0 0 -1.238 20.133 16 16 0 0 0 -16 16h288a15.987 15.987 0 0 0 -4.68-11.32z" fill="#ffec00"/></g></g><g fill="#fcc200"><path d="m264.006 127.989a7.985 7.985 0 0 1 -6.4-3.2 112.528 112.528 0 0 0 -44.806-35.474 8 8 0 1 1 6.4-14.661 128.561 128.561 0 0 1 51.193 40.53 8 8 0 0 1 -6.39 12.805z"/><path d="m48 200a8 8 0 0 1 -8-8 127.776 127.776 0 0 1 32.6-85.335 8 8 0 1 1 11.922 10.669 111.809 111.809 0 0 0 -28.522 74.666 8 8 0 0 1 -8 8z"/><path d="m96 200h-56a8 8 0 0 1 0-16h56a8 8 0 0 1 0 16z"/></g><path d="m288 200h-48a8 8 0 0 1 0-16h48a8 8 0 0 1 0 16z" fill="#fff"/><path d="m120.006 104.418a8 8 0 0 1 -4.322-14.738c2.787-1.784 5.686-3.463 8.618-4.991a8 8 0 1 1 7.398 14.189c-2.511 1.309-4.995 2.747-7.383 4.277a7.963 7.963 0 0 1 -4.311 1.263z" fill="#fff"/><path d="m80 152a8.005 8.005 0 0 1 -7.378-11.086 111.666 111.666 0 0 1 22.562-34.385 8 8 0 1 1 11.544 11.078 95.717 95.717 0 0 0 -19.348 29.476 8 8 0 0 1 -7.38 4.917z" fill="#fff"/></g><path d="m200 488v-48h40v16l16 16v16z" fill="#c1641f"/><path d="m224 384 16 56h-40l-32-16-56-8v-32z" fill="#007bb1"/><path d="m241.373 329.373h45.255v45.255h-45.255z" fill="#f9ce95" transform="matrix(.707 -.707 .707 .707 -171.578 289.775)"/><g><path d="m112 320h112v64h-112z" fill="#f98800"/><path d="m112 336h112v32h-112z" fill="#ffec00"/><path d="m112 344h112v16h-112z" fill="#dff1fc"/></g><path d="m261.775 280.686h124.451v22.627h-124.451z" fill="#e22526" transform="matrix(.707 -.707 .707 .707 -111.578 314.627)"/><path d="m311.394 200.606 104.606 103.394 72-72-104.606-103.394z" fill="#2c3f51"/><path d="m383.029 142.461h33.941v147.078h-33.941z" fill="#35495e" transform="matrix(.707 -.707 .707 .707 -35.578 346.108)"/><g fill="#94a4a5"><path d="m280 488 32-32h56l16-48 40-8 16-64 48-48v200z"/><path d="m351.029 319.029h33.941v33.941h-33.941z" transform="matrix(.707 -.707 .707 .707 -129.803 358.627)"/><path d="m407.029 31.029h33.941v33.941h-33.941z" transform="matrix(.707 -.707 .707 .707 90.246 313.872)"/><path d="m312 392h32v32h-32z"/><path d="m456 112h32v32h-32z"/><path d="m320 72h32v32h-32z"/></g><path d="m209.373 361.373h45.255v45.255h-45.255z" fill="#fbe2bc" transform="matrix(.707 -.707 .707 .707 -203.578 276.52)"/><path d="m232 352-32 32-40-40a22.627 22.627 0 0 1 0-32 22.627 22.627 0 0 1 32 0z" fill="#e22526"/><path d="m448 248a7.974 7.974 0 0 1 -5.657-2.343l-40-40a8 8 0 0 1 11.314-11.314l40 40a8 8 0 0 1 -5.657 13.657z" fill="#fff"/><circle cx="384" cy="176" fill="#fff" r="8"/></g></svg>